<svg width="30" height="20" viewBox="0 0 30 20" fill="none" xmlns="http://www.w3.org/2000/svg">
<path d="M9.00016 8.6665C10.4729 8.6665 11.6668 7.47264 11.6668 5.99984C11.6668 4.52708 10.4729 3.33317 9.00016 3.33317H3.00016V8.6665H9.00016ZM10.3335 11.3332H3.00016V16.6665H10.3335C11.8063 16.6665 13.0002 15.4726 13.0002 13.9998C13.0002 12.527 11.8063 11.3332 10.3335 11.3332ZM13.0844 9.42984C14.632 10.3633 15.6668 12.0608 15.6668 13.9998C15.6668 16.9453 13.279 19.3332 10.3335 19.3332H0.333496V0.666504H9.00016C11.9457 0.666504 14.3335 3.05432 14.3335 5.99984C14.3335 7.30602 13.8639 8.5025 13.0844 9.42984ZM29.6668 13.3332H19.6668V13.6665C19.6668 15.6916 21.3084 17.3332 23.3335 17.3332C24.7584 17.3332 25.9935 16.5204 26.6003 15.3332H29.4452C28.7136 18.0224 26.2544 19.9998 23.3335 19.9998C19.8356 19.9998 17.0002 17.1644 17.0002 13.6665V11.6665C17.0002 8.16864 19.8356 5.33317 23.3335 5.33317C26.8314 5.33317 29.6668 8.16864 29.6668 11.6665V13.3332ZM26.8622 10.6665C26.4268 9.12744 25.0119 7.99984 23.3335 7.99984C21.6551 7.99984 20.2402 9.12744 19.8048 10.6665H26.8622Z" fill="currentColor"/>
</svg>
