<svg width="32" height="32" viewBox="0 0 32 32" fill="none" xmlns="http://www.w3.org/2000/svg">
<path d="M4.00016 9.08317H3.75016V9.33317V14.6665V14.9165H4.00016H10.0002C11.611 14.9165 12.9168 13.6107 12.9168 11.9998C12.9168 10.389 11.611 9.08317 10.0002 9.08317H4.00016ZM4.00016 17.0832H3.75016V17.3332V22.6665V22.9165H4.00016H11.3335C12.9443 22.9165 14.2502 21.6107 14.2502 19.9998C14.2502 18.389 12.9443 17.0832 11.3335 17.0832H4.00016ZM13.8931 15.269L13.7049 15.4929L13.9553 15.6439C15.431 16.534 16.4168 18.152 16.4168 19.9998C16.4168 22.8072 14.1409 25.0832 11.3335 25.0832H1.5835V6.9165H10.0002C12.8076 6.9165 15.0835 9.19239 15.0835 11.9998C15.0835 13.245 14.6361 14.385 13.8931 15.269ZM27.7498 21.5832H30.1088C29.3059 24.0039 27.0232 25.7498 24.3335 25.7498C20.9737 25.7498 18.2502 23.0263 18.2502 19.6665V17.6665C18.2502 14.3067 20.9737 11.5832 24.3335 11.5832C27.6933 11.5832 30.4168 14.3067 30.4168 17.6665V19.0832H20.6668H20.4168V19.3332V19.6665C20.4168 21.8296 22.1704 23.5832 24.3335 23.5832C25.8008 23.5832 27.0792 22.7763 27.7498 21.5832ZM27.8622 16.9165H28.1927L28.1027 16.5985C27.6377 14.9546 26.1267 13.7498 24.3335 13.7498C22.5403 13.7498 21.0292 14.9546 20.5643 16.5985L20.4743 16.9165H20.8048H27.8622Z" fill="#1F1F1F" stroke="white" stroke-width="0.5"/>
<path d="M20.792 9.875V8.125H27.8753V9.875H20.792Z" fill="#1F1F1F" stroke="white" stroke-width="0.25"/>
</svg>
