<svg width="12" height="12" viewBox="0 0 12 12" fill="none" xmlns="http://www.w3.org/2000/svg">
<path d="M11.6597 10.4655C11.8182 10.624 11.9072 10.839 11.9072 11.0631C11.9072 11.2873 11.8182 11.5023 11.6597 11.6608C11.5012 11.8193 11.2862 11.9084 11.062 11.9084C10.8378 11.9084 10.6229 11.8193 10.4644 11.6608L6.00021 7.19525L1.53467 11.6594C1.37616 11.8179 1.16118 11.907 0.937011 11.907C0.712846 11.907 0.497863 11.8179 0.339354 11.6594C0.180846 11.5009 0.0917969 11.2859 0.0917969 11.0617C0.0917969 10.8376 0.180846 10.6226 0.339354 10.4641L4.8049 5.99994L0.34076 1.53439C0.182252 1.37588 0.0932032 1.1609 0.0932032 0.936737C0.0932032 0.712572 0.182252 0.497589 0.34076 0.339081C0.499269 0.180572 0.714252 0.0915233 0.938417 0.0915233C1.16258 0.0915233 1.37756 0.180572 1.53607 0.339081L6.00021 4.80463L10.4658 0.338377C10.6243 0.179869 10.8393 0.0908203 11.0634 0.0908203C11.2876 0.0908203 11.5026 0.179869 11.6611 0.338377C11.8196 0.496886 11.9086 0.711869 11.9086 0.936034C11.9086 1.1602 11.8196 1.37518 11.6611 1.53369L7.19553 5.99994L11.6597 10.4655Z" fill="#8A949E"/>
</svg>
