<svg width="28" height="28" viewBox="0 0 28 28" fill="none" xmlns="http://www.w3.org/2000/svg">
<path d="M13.9217 0.666504C11.9199 0.666504 10.0262 1.12155 8.32015 1.9165C8.30896 1.91323 8.29748 1.90933 8.2863 1.90609L8.27588 1.93994C3.74381 4.07253 0.588379 8.67138 0.588379 13.9998C0.588379 21.3478 6.57371 27.3332 13.9217 27.3332C21.2697 27.3332 27.255 21.3478 27.255 13.9998C27.255 6.65184 21.2697 0.666504 13.9217 0.666504ZM13.9217 3.33317C16.2103 3.33317 18.2085 4.20541 19.9425 5.42432C19.1004 6.26115 18.1197 7.00132 17.0389 7.604C15.6239 5.89747 13.9019 4.53864 12.091 3.52067C12.6844 3.41033 13.2898 3.33317 13.9217 3.33317ZM8.63525 4.85921C10.7014 5.63665 12.7772 6.91222 14.4478 8.70817C11.6741 9.55041 8.4968 9.49948 5.30713 8.03369C6.19251 6.75669 7.3244 5.67186 8.63525 4.85921ZM21.9399 7.15088C23.0834 8.49124 23.8017 10.1158 24.1691 11.9113C22.6719 11.727 21.1447 11.8142 19.6483 12.117C19.3443 11.2945 18.9743 10.5172 18.5519 9.7863C19.8099 9.0435 20.9548 8.15223 21.9399 7.15088ZM3.96077 10.4946C8.20036 12.5242 12.4998 12.3776 16.1509 10.9582C16.5097 11.5593 16.8242 12.1962 17.0858 12.8722C12.9076 14.5062 9.31326 17.9459 7.88786 22.5702C5.15207 20.6423 3.25505 17.6136 3.25505 13.9998C3.25505 12.7551 3.57187 11.6037 3.96077 10.4946ZM21.7342 14.5155C22.6483 14.499 23.5399 14.6562 24.4243 14.8123C24.1574 18.1962 22.3679 21.1398 19.7264 22.9087C20.3402 21.1376 20.8133 18.807 20.5337 15.966C20.4913 15.5356 20.4256 15.1176 20.3514 14.7056C20.5056 14.6743 20.6579 14.6214 20.8123 14.5962C21.1227 14.5456 21.4295 14.521 21.7342 14.5155ZM17.7759 15.5129C17.8126 15.7502 17.856 15.9846 17.88 16.229C18.3303 20.8037 16.7402 23.5429 16.1222 24.4295C15.4138 24.58 14.6796 24.6665 13.9217 24.6665C12.6244 24.6665 11.4165 24.3531 10.2681 23.9321C11.2818 20.0066 14.2919 17.0126 17.7759 15.5129Z" fill="currentColor"/>
</svg>
