<svg width="32" height="32" viewBox="0 0 32 32" fill="none" xmlns="http://www.w3.org/2000/svg">
<path d="M10.3823 4.16615L10.4823 4.11909L10.4831 4.11654C12.1429 3.35262 13.9807 2.9165 15.9217 2.9165C23.1316 2.9165 29.005 8.78991 29.005 15.9998C29.005 23.2098 23.1316 29.0832 15.9217 29.0832C8.71178 29.0832 2.83838 23.2098 2.83838 15.9998C2.83838 10.7727 5.93373 6.25945 10.3823 4.16615ZM22.1188 7.60165L22.3304 7.39135L22.0863 7.21979C20.3248 5.98158 18.2771 5.08317 15.9217 5.08317C15.2695 5.08317 14.6479 5.16283 14.0453 5.27488L13.3677 5.40088L13.9685 5.7386C15.7561 6.74343 17.4533 8.08338 18.8465 9.76358L18.9791 9.92358L19.1607 9.82235C20.2612 9.20869 21.2603 8.45478 22.1188 7.60165ZM10.7233 6.62523L10.6081 6.58189L10.5035 6.64673C9.1628 7.47789 8.00606 8.58683 7.10168 9.89125L6.93176 10.1363L7.20274 10.2609C10.4509 11.7535 13.6914 11.8064 16.5204 10.9474L16.9035 10.8311L16.6308 10.5379C14.9306 8.71011 12.8208 7.41446 10.7233 6.62523ZM24.1301 8.98863L23.9531 8.78106L23.7617 8.97555C22.7924 9.96088 21.6648 10.8389 20.4248 11.571L20.2116 11.6969L20.3355 11.9114C20.751 12.6306 21.1149 13.395 21.4138 14.2037L21.488 14.4045L21.6979 14.3621C23.1713 14.0639 24.6713 13.9788 26.1386 14.1594L26.4838 14.2019L26.414 13.8612C26.0397 12.0318 25.3056 10.3666 24.1301 8.98863ZM6.06872 12.2691L5.81715 12.1487L5.72486 12.4119C5.33269 13.5302 5.00505 14.7132 5.00505 15.9998C5.00505 19.7073 6.95247 22.8075 9.74385 24.7745L10.0253 24.9729L10.1268 24.6438C11.5272 20.1005 15.0613 16.7146 19.1768 15.1051L19.4088 15.0143L19.3189 14.782C19.0521 14.0923 18.7313 13.4427 18.3655 12.83L18.2572 12.6486L18.0603 12.7252C14.4671 14.1221 10.24 14.266 6.06872 12.2691ZM26.6735 16.832L26.6914 16.6056L26.4678 16.5661L26.4589 16.5646C25.581 16.4096 24.6687 16.2486 23.7297 16.2655C23.4145 16.2712 23.0956 16.2967 22.7721 16.3495C22.6817 16.3642 22.5946 16.3866 22.5178 16.4069C22.5082 16.4095 22.4987 16.412 22.4894 16.4145C22.4212 16.4326 22.3616 16.4484 22.3017 16.4605L22.062 16.5091L22.1054 16.7499C22.179 17.1584 22.2434 17.5693 22.2849 17.9905C22.5603 20.7893 22.0944 23.0833 21.4902 24.8268L21.2461 25.5312L21.8655 25.1164C24.5701 23.3053 26.4006 20.2927 26.6735 16.832ZM20.0229 17.4747L19.9736 17.1556L19.677 17.2832C16.1348 18.808 13.0623 21.8568 12.026 25.8696L11.9694 26.0889L12.182 26.1669C13.3451 26.5932 14.5839 26.9165 15.9217 26.9165C16.6988 26.9165 17.4504 26.8278 18.1742 26.6741L18.2708 26.6535L18.3273 26.5725C18.9704 25.6498 20.5863 22.8524 20.1288 18.2045L20.1288 18.2045C20.11 18.0138 20.0796 17.8261 20.0506 17.6478C20.0411 17.589 20.0317 17.5312 20.0229 17.4747Z" fill="#1F1F1F" stroke="white" stroke-width="0.5"/>
</svg>
