<svg width="32" height="32" viewBox="0 0 32 32" fill="none" xmlns="http://www.w3.org/2000/svg">
<path d="M8.15388 7.49295L8.15395 7.493L10.8206 9.57372L10.8206 9.57373L16.0002 13.6152L21.1797 9.57373L21.1797 9.57372L23.8464 7.493L23.8464 7.49295L24.6143 6.89427L24.6146 6.89406L8.15388 7.49295ZM8.15388 7.49295L7.38601 6.89427C7.38595 6.89422 7.38589 6.89418 7.38583 6.89413L8.15388 7.49295ZM7.37071 6.88233L7.38023 6.88976L7.37071 6.88233ZM7.37071 6.88233L7.37042 6.88217M7.37071 6.88233L7.37042 6.88217M7.37042 6.88217C7.18534 6.7397 6.99058 6.63198 6.78856 6.55624L6.76817 6.54481L6.74723 6.54122C6.51366 6.45906 6.27071 6.41898 6.02202 6.41676L5.99257 6.41171L5.97056 6.41685C5.62136 6.42117 5.29337 6.50177 5.00216 6.64309L4.97074 6.65043L4.94706 6.67079C4.64247 6.8292 4.38059 7.05514 4.18013 7.32989L4.15276 7.35341L4.14166 7.38431C3.93245 7.68998 3.79734 8.05195 3.76042 8.44614L3.75696 8.45579L3.75676 8.48953C3.75239 8.54792 3.75016 8.60699 3.75016 8.66667V9.64251V9.64323L3.74946 9.76468L3.84633 9.8403L7.84625 12.9626L7.84633 12.9627L10.5129 15.046L15.8463 19.2126L16.0002 19.3329L16.1541 19.2126L21.4874 15.046L24.154 12.9627L24.1541 12.9626L28.154 9.8403L28.2502 9.76523V9.64323V8.66667V8.64622L28.2501 8.64566C28.2479 8.3976 28.2072 8.16016 28.1337 7.93891L28.1295 7.9139L28.1186 7.89512C28.0245 7.63066 27.8831 7.39032 27.7039 7.18389L27.6902 7.16041L27.6692 7.14482C27.4769 6.93351 27.2441 6.75996 26.9821 6.63536L26.9591 6.61835L26.9327 6.61264C26.6576 6.48996 26.3517 6.42054 26.0276 6.41682L25.9848 6.40755L25.9572 6.41704C25.4925 6.4252 25.0482 6.56633 24.6484 6.86806L24.6475 6.86838L24.6202 6.88966L7.37042 6.88217ZM10.4168 18.2318V27.75H5.3335C3.27827 27.75 1.5835 26.0552 1.5835 24V8.66667C1.5835 6.24315 3.57665 4.25 6.00016 4.25C6.94566 4.25 7.913 4.55682 8.71859 5.18655L8.78644 5.23958H8.78916L15.8464 10.7466L16.0002 10.8666L16.154 10.7466L23.279 5.18668L23.2792 5.18646C24.085 4.55587 25.0536 4.25 26.0002 4.25C28.4237 4.25 30.4168 6.24315 30.4168 8.66667V24C30.4168 26.0552 28.722 27.75 26.6668 27.75H21.5835V18.2318V17.7192L21.1796 18.0348L16.0002 22.0812L10.8207 18.0348L10.4168 17.7192V18.2318ZM4.15399 12.829L3.75016 12.5137V13.026V24C3.75016 24.8914 4.44205 25.5833 5.3335 25.5833H8.00016H8.25016V25.3333V16.1484V16.0264L8.15399 15.9514L4.15399 12.829ZM28.2502 12.5137L27.8463 12.829L23.8463 15.9514L23.7502 16.0264V16.1484V25.3333V25.5833H24.0002H26.6668C27.5583 25.5833 28.2502 24.8914 28.2502 24V13.026V12.5137Z" fill="#1F1F1F" stroke="white" stroke-width="0.5"/>
</svg>
