<svg width="30" height="24" viewBox="0 0 30 24" fill="none" xmlns="http://www.w3.org/2000/svg">
<path d="M5.00016 0C2.43858 0 0.333496 2.10508 0.333496 4.66667V20C0.333496 22.1933 2.1402 24 4.3335 24H9.66683V14.2318L15.0002 18.3984L20.3335 14.2318V24H25.6668C27.8601 24 29.6668 22.1933 29.6668 20V4.66667C29.6668 2.10508 27.5617 0 25.0002 0C24.0003 0 22.9769 0.323013 22.1252 0.989583L15.0002 6.54948L7.87516 0.989583H7.87256C7.02124 0.324108 5.99919 0 5.00016 0ZM5.00016 2.66667C5.44033 2.66667 5.857 2.79772 6.23193 3.09115L7.00016 3.6901L9.66683 5.77083L6.23193 3.09115L5.68351 2.78394L5.00016 2.66667L4.08725 2.87995L3.36575 3.5L3.00671 4.5L3.00016 5.64323V4.66667C3.00016 3.54558 3.87908 2.66667 5.00016 2.66667ZM25.0002 2.66667C26.1212 2.66667 27.0002 3.54558 27.0002 4.66667L26.8904 4L26.5001 3.33067L25.8535 2.85129L25.0002 2.66667L23.7684 3.09115L20.3335 5.77083L23.0002 3.6901L23.7684 3.09115C24.1433 2.79772 24.56 2.66667 25.0002 2.66667ZM9.66683 5.77083L15.0002 9.93229L20.3335 5.77083L23.7684 3.09115L25.0002 2.66667L25.8535 2.85129L26.5001 3.33067L26.8904 4L27.0002 4.66667V5.64323L23.0002 8.76562L20.3335 10.849L15.0002 15.0156L9.66683 10.849L7.00016 8.76562L3.00016 5.64323L3.00671 4.5L3.36575 3.5L4.08725 2.87995L5.00016 2.66667L5.68351 2.78394L6.23193 3.09115L9.66683 5.77083ZM3.00016 9.02604L7.00016 12.1484V21.3333H4.3335C3.58012 21.3333 3.00016 20.7534 3.00016 20V9.02604ZM27.0002 9.02604V20C27.0002 20.7534 26.4202 21.3333 25.6668 21.3333H23.0002V12.1484L27.0002 9.02604Z" fill="currentColor"/>
</svg>
