<svg width="32" height="32" viewBox="0 0 32 32" fill="none" xmlns="http://www.w3.org/2000/svg">
<path d="M4.25 10.6667C4.25 7.12874 7.12874 4.25 10.6667 4.25H21.3333C24.8713 4.25 27.75 7.12874 27.75 10.6667V21.3333C27.75 24.8713 24.8713 27.75 21.3333 27.75H10.6667C7.12874 27.75 4.25 24.8713 4.25 21.3333V10.6667ZM21.3333 6.41667H10.6667C8.32326 6.41667 6.41667 8.32326 6.41667 10.6667V21.3333C6.41667 23.6767 8.32326 25.5833 10.6667 25.5833H21.3333C23.6767 25.5833 25.5833 23.6767 25.5833 21.3333V10.6667C25.5833 8.32326 23.6767 6.41667 21.3333 6.41667ZM9.58333 16C9.58333 12.4621 12.4621 9.58333 16 9.58333C19.5379 9.58333 22.4167 12.4621 22.4167 16C22.4167 19.5379 19.5379 22.4167 16 22.4167C12.4621 22.4167 9.58333 19.5379 9.58333 16ZM20.25 16C20.25 13.6566 18.3434 11.75 16 11.75C13.6566 11.75 11.75 13.6566 11.75 16C11.75 18.3434 13.6566 20.25 16 20.25C18.3434 20.25 20.25 18.3434 20.25 16Z" fill="#1F1F1F" stroke="white" stroke-width="0.5"/>
<path d="M21.8124 8.47891C22.039 8.25231 22.3464 8.125 22.6668 8.125C22.9873 8.125 23.2946 8.25231 23.5213 8.47891C23.7479 8.70552 23.8752 9.01286 23.8752 9.33333C23.8752 9.6538 23.7479 9.96115 23.5213 10.1878C23.2946 10.4144 22.9873 10.5417 22.6668 10.5417C22.3464 10.5417 22.039 10.4144 21.8124 10.1878C21.5858 9.96115 21.4585 9.6538 21.4585 9.33333C21.4585 9.01286 21.5858 8.70552 21.8124 8.47891Z" fill="#1F1F1F" stroke="white" stroke-width="0.25"/>
</svg>
