<svg width="32" height="32" viewBox="0 0 32 32" fill="none" xmlns="http://www.w3.org/2000/svg">
<path d="M6.66667 6.41667H6.41667V6.66667V25.3333V25.5833H6.66667H25.3333H25.5833V25.3333V6.66667V6.41667H25.3333H6.66667ZM4.25 6.66667C4.25 5.3314 5.3314 4.25 6.66667 4.25H25.3333C26.6686 4.25 27.75 5.3314 27.75 6.66667V25.3333C27.75 26.6686 26.6686 27.75 25.3333 27.75H6.66667C5.3314 27.75 4.25 26.6686 4.25 25.3333V6.66667Z" fill="#1F1F1F" stroke="white" stroke-width="0.5"/>
<path d="M23.8752 17.5651V22.5417H20.87V17.5651C20.87 16.8324 20.6431 16.3644 20.3576 16.0792C20.076 15.7978 19.7454 15.7031 19.5496 15.7031C19.3667 15.7031 18.985 15.7629 18.6461 16.0288C18.3007 16.2997 18.0158 16.7722 18.0158 17.5651V22.5417H14.9012V13.4583H18.0158V14.6354V15.107L18.2494 14.6973C18.6538 13.988 19.4722 13.4583 21.0705 13.4583C21.848 13.4583 22.5427 13.7677 23.0465 14.4266C23.5532 15.0893 23.8752 16.117 23.8752 17.5651ZM8.66943 10.0234C8.66943 9.59872 8.82781 9.23278 9.11415 8.97209C9.40118 8.71076 9.82625 8.54688 10.3726 8.54688C10.8582 8.54688 11.2545 8.70871 11.5286 8.97011C11.8024 9.23132 11.9611 9.59842 11.9611 10.0234C11.9611 10.4481 11.8027 10.8134 11.5165 11.0734C11.2295 11.3341 10.8044 11.4974 10.258 11.4974C9.77219 11.4974 9.37587 11.3361 9.10188 11.0754C8.82811 10.8148 8.66943 10.4484 8.66943 10.0234ZM8.76058 22.5417V13.4583H11.8752V22.5417H8.76058Z" fill="#1F1F1F" stroke="white" stroke-width="0.25"/>
</svg>
