<svg width="32" height="32" viewBox="0 0 32 32" fill="none" xmlns="http://www.w3.org/2000/svg">
<path d="M6.66667 4C5.19333 4 4 5.19333 4 6.66667V25.3333C4 26.8067 5.19333 28 6.66667 28H25.3333C26.8067 28 28 26.8067 28 25.3333V6.66667C28 5.19333 26.8067 4 25.3333 4H6.66667ZM6.66667 6.66667H25.3333V25.3333H6.66667V6.66667Z" fill="currentColor"/>
<path d="M8.54443 10.0234C8.54443 9.10877 9.22989 8.42188 10.3726 8.42188C11.4006 8.42188 12.0861 9.10877 12.0861 10.0234C12.0861 10.9381 11.4006 11.6224 10.258 11.6224C9.22997 11.6224 8.54443 10.9381 8.54443 10.0234Z" fill="currentColor"/>
<path d="M8.63558 22.6667V13.3333H12.0002V22.6667H8.63558Z" fill="currentColor"/>
<path d="M14.7762 22.6667V13.3333H18.1408V14.6354C18.5741 13.8754 19.4425 13.3333 21.0705 13.3333C22.6985 13.3333 24.0002 14.6358 24.0002 17.5651V22.6667H20.745V17.5651C20.745 16.1544 19.875 15.8281 19.5496 15.8281C19.2243 15.8281 18.1408 16.0464 18.1408 17.5651V22.6667H14.7762Z" fill="currentColor"/>
</svg>
