<svg width="32" height="32" viewBox="0 0 32 32" fill="none" xmlns="http://www.w3.org/2000/svg">
<path d="M15.9998 2.6665C8.65183 2.6665 2.6665 8.65183 2.6665 15.9998C2.6665 23.3478 8.65183 29.3332 15.9998 29.3332C23.3478 29.3332 29.3332 23.3478 29.3332 15.9998C29.3332 8.65183 23.3478 2.6665 15.9998 2.6665ZM15.9998 5.33317C21.9067 5.33317 26.6665 10.093 26.6665 15.9998C26.6665 21.9067 21.9067 26.6665 15.9998 26.6665C10.093 26.6665 5.33317 21.9067 5.33317 15.9998C5.33317 10.093 10.093 5.33317 15.9998 5.33317ZM14.2524 10.6665C12.1991 10.6665 10.2613 10.8953 8.43734 11.354C7.98134 11.4673 7.63786 11.808 7.63786 12.492C7.63786 13.176 8.09448 13.7473 8.77848 13.6327C9.11982 13.6327 9.23538 13.5181 9.46338 13.5181C10.946 13.1754 12.6564 12.9478 14.2524 12.9478C17.4458 12.9478 20.7524 13.7452 23.0337 14.9998C23.375 15.1132 23.488 15.229 23.716 15.229C24.4013 15.229 24.8579 14.7724 24.9712 14.0884C24.9712 13.519 24.6316 13.1758 24.2889 12.9478C21.4382 11.4651 17.7871 10.6665 14.2524 10.6665ZM14.0259 14.6587C12.0872 14.6587 10.7194 15.0009 9.3514 15.3436C8.78073 15.5716 8.55192 15.799 8.55192 16.3696C8.55192 16.8256 8.89271 17.2811 9.46338 17.2811C9.69138 17.2811 9.80569 17.2812 10.0337 17.1665C11.0604 16.9385 12.4286 16.7108 13.9113 16.7108C16.8753 16.7108 19.6133 17.3936 21.5519 18.6483C21.7799 18.7616 22.0088 18.8774 22.2368 18.8774C22.8062 18.8774 23.1469 18.4207 23.2629 17.8514C23.2629 17.5101 23.0352 17.1679 22.6925 16.9399C20.1832 15.4573 17.2192 14.6587 14.0259 14.6587Z" fill="currentColor"/>
<path d="M9.80436 19.2476C11.287 18.9049 12.7709 18.6772 14.3669 18.6772C16.9895 18.6772 19.3838 19.3602 21.4372 20.5002C21.6652 20.7282 21.8929 20.8436 21.8929 21.2996C21.6649 21.8703 21.3228 22.0965 20.9814 22.0965C20.7534 22.0965 20.6391 21.9833 20.4111 21.87C18.7005 20.8433 16.5323 20.2736 14.2523 20.2736C12.9976 20.2736 11.6293 20.5013 10.4893 20.7293C10.2613 20.7293 10.0336 20.8439 9.91895 20.8439C9.46295 20.8439 9.12207 20.5004 9.12207 20.0444C9.12207 19.5884 9.34836 19.2476 9.80436 19.2476Z" fill="currentColor"/>
</svg>
