<svg width="32" height="32" viewBox="0 0 32 32" fill="none" xmlns="http://www.w3.org/2000/svg">
<path d="M8.49764 11.5966L8.4983 11.5965C10.3006 11.1432 12.2178 10.9165 14.2524 10.9165C17.7485 10.9165 21.3535 11.7059 24.1614 13.1632C24.4633 13.3666 24.7134 13.6371 24.721 14.0681C24.6696 14.3562 24.5502 14.5806 24.3875 14.7324C24.2231 14.8858 23.9999 14.979 23.716 14.979C23.6519 14.979 23.6034 14.9651 23.5168 14.9276C23.4984 14.9196 23.4779 14.9103 23.4554 14.9001C23.3756 14.864 23.2696 14.8161 23.1345 14.77C20.8113 13.4981 17.4717 12.6978 14.2524 12.6978C12.6439 12.6978 10.9249 12.9256 9.43264 13.2686C9.30652 13.2729 9.20347 13.3032 9.12355 13.3266C9.11355 13.3295 9.1039 13.3324 9.09462 13.335C9.00577 13.3605 8.91658 13.3827 8.77848 13.3827H8.75767L8.73715 13.3861C8.48022 13.4292 8.27854 13.3457 8.13446 13.1913C7.98469 13.0308 7.88786 12.7813 7.88786 12.492C7.88786 12.1924 7.96253 11.9937 8.0644 11.8619C8.16627 11.7301 8.31283 11.6426 8.49764 11.5966ZM9.97949 16.9225L9.94914 16.9292L9.92137 16.9432C9.82373 16.9923 9.76227 17.011 9.7073 17.0202C9.64607 17.0305 9.58237 17.0311 9.46338 17.0311C9.05095 17.0311 8.80192 16.7086 8.80192 16.3696C8.80192 16.1182 8.85184 15.9831 8.93094 15.8867C9.01601 15.783 9.16192 15.6898 9.42875 15.5819C10.7888 15.2413 12.1279 14.9087 14.0259 14.9087C17.1747 14.9087 20.0922 15.6954 22.5594 17.1516C22.8443 17.3431 23.002 17.6032 23.0123 17.8279C22.9028 18.3294 22.6252 18.6274 22.2368 18.6274C22.0823 18.6274 21.9135 18.5487 21.6758 18.4306C19.6866 17.1478 16.9027 16.4608 13.9113 16.4608C12.4042 16.4608 11.0167 16.6921 9.97949 16.9225ZM2.9165 15.9998C2.9165 8.7899 8.7899 2.9165 15.9998 2.9165C23.2098 2.9165 29.0832 8.7899 29.0832 15.9998C29.0832 23.2098 23.2098 29.0832 15.9998 29.0832C8.7899 29.0832 2.9165 23.2098 2.9165 15.9998ZM26.9165 15.9998C26.9165 9.95494 22.0447 5.08317 15.9998 5.08317C9.95494 5.08317 5.08317 9.95494 5.08317 15.9998C5.08317 22.0447 9.95494 26.9165 15.9998 26.9165C22.0447 26.9165 26.9165 22.0447 26.9165 15.9998Z" fill="#1F1F1F" stroke="white" stroke-width="0.5"/>
<path d="M9.80436 19.4226H9.82432L9.84377 19.4181C11.3179 19.0774 12.7879 18.8522 14.3669 18.8522C16.9496 18.8522 19.3075 19.5223 21.3313 20.6416C21.3673 20.6767 21.4042 20.7106 21.4375 20.7411C21.4545 20.7567 21.4705 20.7713 21.485 20.7849C21.5361 20.8328 21.577 20.8745 21.6103 20.9191C21.6677 20.9959 21.7124 21.0937 21.7174 21.2665C21.5072 21.7701 21.2228 21.9215 20.9814 21.9215C20.9013 21.9215 20.8425 21.903 20.7741 21.869C20.7391 21.8516 20.7037 21.8313 20.6595 21.806L20.6514 21.8013C20.6064 21.7755 20.5547 21.7461 20.4953 21.7164C18.7552 20.6737 16.5575 20.0986 14.2523 20.0986C12.9855 20.0986 11.6101 20.3271 10.471 20.5545C10.3373 20.5574 10.2103 20.5906 10.1133 20.6184C10.0934 20.6241 10.0756 20.6294 10.059 20.6343C10.0298 20.6429 10.0047 20.6503 9.98005 20.6567C9.96199 20.6614 9.94774 20.6647 9.93642 20.6667C9.93089 20.6677 9.92666 20.6682 9.92353 20.6686L9.92006 20.6689C9.91926 20.6689 9.9189 20.6689 9.91895 20.6689C9.56035 20.6689 9.29707 20.4045 9.29707 20.0444C9.29707 19.8428 9.34733 19.6864 9.42896 19.5842C9.50632 19.4873 9.62456 19.4226 9.80436 19.4226Z" fill="#1F1F1F" stroke="white" stroke-width="0.35"/>
</svg>
