<svg width="20" height="20" viewBox="0 0 20 20" fill="none" xmlns="http://www.w3.org/2000/svg">
<path d="M9.9987 15.0007C7.23727 15.0007 4.9987 12.7621 4.9987 10.0007C4.9987 7.23923 7.23727 5.00065 9.9987 5.00065C12.7601 5.00065 14.9987 7.23923 14.9987 10.0007C14.9987 12.7621 12.7601 15.0007 9.9987 15.0007ZM9.9987 13.334C11.8396 13.334 13.332 11.8416 13.332 10.0007C13.332 8.1597 11.8396 6.66732 9.9987 6.66732C8.15775 6.66732 6.66536 8.1597 6.66536 10.0007C6.66536 11.8416 8.15775 13.334 9.9987 13.334ZM9.16537 0.833984H10.832V3.33398H9.16537V0.833984ZM9.16537 16.6673H10.832V19.1673H9.16537V16.6673ZM2.92763 4.10809L4.10614 2.92958L5.87391 4.69735L4.6954 5.87586L2.92763 4.10809ZM14.1234 15.304L15.302 14.1254L17.0698 15.8932L15.8913 17.0717L14.1234 15.304ZM15.8913 2.92958L17.0698 4.10809L15.302 5.87586L14.1234 4.69735L15.8913 2.92958ZM4.6954 14.1254L5.87391 15.304L4.10614 17.0717L2.92763 15.8932L4.6954 14.1254ZM19.1654 9.16732V10.834H16.6654V9.16732H19.1654ZM3.33203 9.16732V10.834H0.832031V9.16732H3.33203Z" fill="#737373"/>
</svg>
