<svg width="26" height="23" viewBox="0 0 26 23" fill="none" xmlns="http://www.w3.org/2000/svg">
<path d="M21.7924 3.52841C22.5832 3.24148 22.9757 3.13821 23.1932 3.10128C23.1948 3.17081 23.1932 3.22718 23.1896 3.26417C22.8795 6.52273 21.5208 14.5396 20.8229 18.27C20.6596 19.1436 20.5343 19.5594 19.6905 19.0638C19.1352 18.7374 18.6327 18.3268 18.0943 17.9738C16.3281 16.816 13.8 15.0917 14.0076 15.1954C12.2688 14.0496 12.9967 13.348 13.9673 12.4122C14.1245 12.2608 14.288 12.1032 14.4484 11.9365C14.52 11.8621 14.8703 11.5364 15.3641 11.0773C16.9483 9.6045 20.0095 6.75854 20.0868 6.4292C20.0995 6.37517 20.1112 6.17377 19.9915 6.06741C19.8719 5.96106 19.6953 5.99744 19.5679 6.02636C19.3872 6.06736 16.5101 7.96904 10.9366 11.7313C10.1199 12.2921 9.38022 12.5654 8.71748 12.551L8.72341 12.554C7.85041 12.2461 6.97986 11.981 6.10473 11.7145C5.52981 11.5393 4.95292 11.3636 4.37205 11.1748C4.22998 11.1286 4.09137 11.0848 3.9611 11.0438C9.99708 8.41437 14.0173 6.68308 16.0319 5.84517C18.9579 4.62816 20.6935 3.92718 21.7924 3.52841ZM25.0225 0.957251C24.6847 0.683092 24.3133 0.557265 24.0553 0.495638C23.7889 0.431998 23.5357 0.411518 23.3437 0.414905C22.7085 0.426091 22.0263 0.606745 20.8828 1.02166C19.7164 1.44493 17.924 2.17001 15.0077 3.38298C12.9517 4.23816 8.8585 6.00137 2.7382 8.66784C2.20061 8.88277 1.70781 9.12664 1.31845 9.4157C0.958916 9.68277 0.455636 10.1605 0.36357 10.895C0.294022 11.4497 0.455756 11.9617 0.783756 12.3649C1.0693 12.7158 1.43513 12.929 1.71372 13.064C2.12726 13.2642 2.68368 13.4386 3.17269 13.592C3.93685 13.8314 4.69925 14.0761 5.46505 14.3105C7.83588 15.0362 9.78754 15.6336 11.9349 17.0486C13.51 18.0866 15.0547 19.1698 16.6324 20.204C17.2079 20.5812 17.7457 21.0141 18.3399 21.363C18.9888 21.7444 19.8139 22.0921 20.8181 21.9996C22.3359 21.86 23.1255 20.4637 23.4441 18.7602C24.1403 15.0393 25.5212 6.91118 25.8443 3.51682C25.8864 3.07376 25.8371 2.57717 25.796 2.33741C25.7537 2.0905 25.6245 1.44581 25.0225 0.957251Z" fill="currentColor"/>
</svg>
