<svg viewBox="0 0 12 12" fill="none" xmlns="http://www.w3.org/2000/svg">
<path d="M11.344 1.5V8.8125C11.344 9.03628 11.2551 9.25089 11.0968 9.40912C10.9386 9.56736 10.724 9.65625 10.5002 9.65625C10.2764 9.65625 10.0618 9.56736 9.90359 9.40912C9.74536 9.25089 9.65646 9.03628 9.65646 8.8125V3.53906L2.09717 11.097C1.93866 11.2555 1.72368 11.3445 1.49951 11.3445C1.27535 11.3445 1.06036 11.2555 0.901854 11.097C0.743346 10.9384 0.654297 10.7235 0.654297 10.4993C0.654297 10.2751 0.743346 10.0601 0.901854 9.90164L8.46115 2.34375H3.18771C2.96394 2.34375 2.74933 2.25486 2.59109 2.09662C2.43286 1.93839 2.34396 1.72378 2.34396 1.5C2.34396 1.27622 2.43286 1.06161 2.59109 0.903379C2.74933 0.745145 2.96394 0.65625 3.18771 0.65625H10.5002C10.724 0.65625 10.9386 0.745145 11.0968 0.903379C11.2551 1.06161 11.344 1.27622 11.344 1.5Z" fill="currentColor"/>
</svg>
